<?xml version="1.0" encoding="utf-8"?>
<!-- Generator: Adobe Illustrator 16.0.0, SVG Export Plug-In . SVG Version: 6.00 Build 0)  -->
<!DOCTYPE svg PUBLIC "-//W3C//DTD SVG 1.1//EN" "http://www.w3.org/Graphics/SVG/1.1/DTD/svg11.dtd">
<svg version="1.1" xmlns="http://www.w3.org/2000/svg" xmlns:xlink="http://www.w3.org/1999/xlink" x="0px" y="0px"
	 width="23.141px" height="24.793px" viewBox="0 0 23.141 24.793" enable-background="new 0 0 23.141 24.793" xml:space="preserve">
<g id="Layer_1" display="none">
	<g display="inline">
		<path fill="#605E5E" d="M11.434,14.667l-1.532-1.344l-4.381,3.754c0.16,0.152,0.372,0.241,0.609,0.241h10.604
			c0.238,0,0.451-0.089,0.61-0.241l-4.381-3.754L11.434,14.667z M11.434,14.667"/>
		<path fill="#605E5E" d="M17.345,8.714c-0.157-0.151-0.372-0.242-0.61-0.242H6.13c-0.232,0-0.449,0.09-0.609,0.242l5.913,5.067
			L17.345,8.714z M17.345,8.714"/>
		<path fill="#605E5E" d="M5.239,9.25v7.346l4.277-3.633L5.239,9.25z M5.239,9.25"/>
		<path fill="#605E5E" d="M13.349,12.963l4.275,3.633V9.245L13.349,12.963z M13.349,12.963"/>
	</g>
</g>
<g id="Layer_2">
	<path fill="#605E5E" d="M15.702,3.695c-1.6-1.524-4.113-1.524-5.712,0c-0.63,0-1.143,0.512-1.143,1.143v2.285
		c0,0.629,0.513,1.142,1.143,1.142c0.342,0.328,0.733,0.569,1.144,0.757v2.671h0.57v7.999l1.143,1.142l1.143-1.142v-7.999h0.572
		V9.021c0.408-0.188,0.798-0.429,1.141-0.757c0.632,0,1.144-0.513,1.144-1.142V4.838C16.846,4.207,16.334,3.695,15.702,3.695
		L15.702,3.695z M13.989,4.838c0,0.632-0.509,1.142-1.143,1.142c-0.631,0-1.143-0.51-1.143-1.142c0-0.631,0.512-1.143,1.143-1.143
		C13.48,3.695,13.989,4.207,13.989,4.838L13.989,4.838z M13.989,4.838"/>
</g>
</svg>
