<?xml version="1.0" encoding="utf-8"?>
<!-- Generator: Adobe Illustrator 18.1.1, SVG Export Plug-In . SVG Version: 6.00 Build 0)  -->
<svg version="1.1" id="Layer_1" xmlns="http://www.w3.org/2000/svg" xmlns:xlink="http://www.w3.org/1999/xlink" x="0px" y="0px"
	 viewBox="0 0 40.4 40.4" enable-background="new 0 0 40.4 40.4" xml:space="preserve">
<g>
	<g>
		<path fill="#5F5D5D" d="M14.3,13.1c0,0.4-0.3,0.7-0.7,0.7l0,0c-0.4,0-0.7-0.3-0.7-0.7v-2.7c0-0.4,0.3-0.7,0.7-0.7l0,0
			c0.4,0,0.7,0.3,0.7,0.7V13.1z"/>
		<path fill="#5F5D5D" d="M25.2,10.4c0-0.4-0.3-0.7-0.7-0.7l0,0c-0.4,0-0.7,0.3-0.7,0.7v2.7c0,0.4,0.3,0.7,0.7,0.7l0,0
			c0.4,0,0.7-0.3,0.7-0.7V10.4z"/>
		<rect x="13" y="17.9" fill="#5F5D5D" width="2.7" height="2.7"/>
		<rect x="13" y="22" fill="#5F5D5D" width="2.7" height="2.7"/>
		<rect x="17" y="17.9" fill="#5F5D5D" width="2.7" height="2.7"/>
		<rect x="17" y="22" fill="#5F5D5D" width="2.7" height="2.7"/>
		<path fill="#5F5D5D" d="M19.8,26h-8c-0.1,0-0.1-0.1-0.1-0.1v-9.4h14.9v2.7h1.4v-5.3c0-0.8-0.7-1.5-1.5-1.5h-0.6v0.7
			c0,0.7-0.6,1.4-1.4,1.4c-0.7,0-1.4-0.6-1.4-1.4v-0.7H15v0.7c0,0.7-0.6,1.4-1.4,1.4c-0.8,0-1.4-0.6-1.4-1.4v-0.7h-0.6
			c-0.8,0-1.5,0.7-1.5,1.5v12c0,0.8,0.7,1.5,1.5,1.5h8V26z"/>
		<rect x="21.1" y="17.9" fill="#5F5D5D" width="2.7" height="2.7"/>
	</g>
	<path fill="#5F5D5D" d="M22.3,27c-0.4-1.5,0.2-3.1,1.5-4c1.3-0.9,3-0.9,4.3,0c0,0,0,0,0,0l-0.8,0.4C27,23.6,26.9,24,27,24.4
		c0.1,0.2,0.3,0.3,0.5,0.4c0.1,0,0.3,0,0.4-0.1l2-1.1c0.2-0.1,0.4-0.4,0.4-0.6l-0.1-2.3c0-0.4-0.3-0.7-0.7-0.7
		c-0.4,0-0.7,0.3-0.7,0.7l0,1.1c0,0,0,0,0,0c-1.8-1.2-4.2-1.2-6,0c-1.8,1.2-2.6,3.4-2.1,5.6c0.1,0.3,0.3,0.5,0.6,0.6
		c0.1,0,0.2,0,0.3,0C22.2,27.8,22.4,27.4,22.3,27z"/>
	<path fill="#5F5D5D" d="M31.1,24.9c-0.1-0.4-0.5-0.7-0.9-0.6c-0.4,0.1-0.7,0.5-0.6,0.9c0.4,1.5-0.2,3.1-1.5,4
		c-1.3,0.9-2.9,0.9-4.2,0.1l0.8-0.4c0.3-0.2,0.5-0.6,0.3-0.9c-0.2-0.3-0.6-0.5-0.9-0.3l-2,1.1c-0.2,0.1-0.4,0.4-0.4,0.6l0.1,2.3
		c0,0.3,0.2,0.6,0.6,0.7c0,0,0.1,0,0.1,0c0.4,0,0.7-0.3,0.7-0.7l0-1.1c0.6,0.4,1.3,0.7,2,0.8c1.3,0.2,2.7,0,3.9-0.9
		C30.8,29.2,31.6,27,31.1,24.9z"/>
</g>
</svg>
