<?xml version="1.0" encoding="utf-8"?>
<!-- Generator: Adobe Illustrator 18.1.1, SVG Export Plug-In . SVG Version: 6.00 Build 0)  -->
<svg version="1.1" id="Layer_1" xmlns="http://www.w3.org/2000/svg" xmlns:xlink="http://www.w3.org/1999/xlink" x="0px" y="0px"
	 viewBox="0 0 40 40.6" enable-background="new 0 0 40 40.6" xml:space="preserve">
<g>
	<path fill="#5F5D5D" d="M16.7,11.6c0-0.1,0.1-0.2,0.1-0.2c0.3-0.5,1.3-1.2,1.8-1.5c0.1-0.1,0.3-0.2,0.4-0.3c-4,0.2-6.8,1.1-6.8,2.1
		c0,1.1,3.8,2.1,8.8,2.1c5.1,0,8.8-1.1,8.8-2.1c0-0.9-2.7-1.8-6.6-2c0.3,0.3,0.5,0.5,0.7,0.6c0.8,0.5,1.3,1.9,1.8,2.1
		c0.5,0.2,0.9,0.4,1.2,0.9c-0.1,0-0.2,0-0.3,0.1c-0.4-0.6-0.9-0.5-1.4-1.1c-0.4-0.5-0.8-1.3-1.4-1.7C23.3,10,22,8.4,21.5,7.8
		c-0.3-0.4-0.7,0.4-0.9,0.6c-0.5,0.8-0.9,0.8-1.4,1.3c-0.3,0.3-0.8,0.6-1.1,0.8c-0.5,0.3-0.9,0.7-1.1,1c-0.2,0.5-0.7,1.1-1.1,1.4
		l-0.2,0.2c-0.1,0-0.2,0-0.3-0.1c-1.9-0.4-3-0.9-3-1.5c0-0.1,0.1-0.3,0.2-0.4c0.4,0,0.7-0.1,1.1-0.1C14.9,11.1,15.9,11.3,16.7,11.6
		L16.7,11.6z M19.5,9.2C19.8,9,20,8.8,20.1,8.7c0.3-0.3,1-1.9,1.6-1.1c0.3,0.4,0.8,1,1.4,1.6c4,0.2,7.3,1.1,7.3,2.4
		c0,0.3-0.1,0.5-0.4,0.7l0,0c-1.1,2.2-4,3.8-7.5,4.1v0.2c1.7,0.2,3.7,0.5,4,0.6c0.3,0.1,0.6,0.3,0.7,0.6c0,0,1.4,8.6,1.5,9
		c0,0.3,0,0.6-0.2,0.8l-0.1,0.1l0,0l0,0.3c0,0.3-0.3,0.5-0.7,0.5h0c-0.1,0-0.1,0-0.2,0l-3.1,3c0,0,0,0-0.1,0.1l0,0
		c-0.1,0.1-0.3,0.1-0.4,0.1l0,0.1c0,0.3-0.3,0.5-0.7,0.5l0,0c-0.3,0-0.6-0.2-0.6-0.5l0-0.3l0,0l-2.4-0.5c-0.5,0.1-1.1,0.2-1.6,0.1
		c-1.2-0.1-2.2-0.5-3.1-1.1L14.8,30l0,0c0,0.3-0.3,0.5-0.7,0.5l0,0c-0.3,0-0.6-0.2-0.6-0.5l0-0.3c-0.1,0-0.2-0.1-0.3-0.2
		c-0.2-0.3-0.1-0.8-0.1-0.8l0.3-0.9c-0.6-1.2-0.9-2.6-0.7-4.1c0.3-2.9,2.3-5.4,4.8-6.2c0.4-0.3,1.3-0.9,1.5-1.1c0,0,0.1-0.1,0.1-0.1
		c-3.1-0.5-5.7-2-6.7-4c-0.3-0.2-0.5-0.5-0.5-0.8C12,10.3,15.4,9.4,19.5,9.2L19.5,9.2z M22.4,17.8c0.8,0.4,1.5,1,2,1.7l2.2-1.7
		c0,0,0.1,0.1,0.1,0.2c0,0,0,0,0,0l0.4,2.5c-0.2,0-0.3,0-0.5,0c-0.9-0.1-1.4,0-1.6,0.1c0.6,1.2,0.9,2.6,0.7,4.1
		c-0.2,1.4-0.7,2.8-1.6,3.8c0,0.7,0.1,2.3,0.1,2.5c0,0.1,0,0.1,0,0.2l3.9-3.7c0.1-0.1,0.2-0.4,0.2-0.6c-0.1-0.4-1.5-9-1.5-9
		s0,0,0-0.1c-0.1-0.2-0.3-0.3-0.5-0.4c-0.3-0.1-2.3-0.3-4-0.6V17.8L22.4,17.8z M21.7,17.5c0.1,0,0.2,0.1,0.3,0.1v-0.9
		c-0.1,0-0.2,0-0.3,0V17.5L21.7,17.5z M20.5,17.2c0.4,0,0.8,0.1,1.1,0.3v-0.7l-1.1-0.1V17.2L20.5,17.2z M19.8,17.2
		c0.1,0,0.2,0,0.3,0l0,0v-0.4c-0.1,0-0.2,0-0.3,0V17.2L19.8,17.2z M19.6,16.5c-0.1,0-0.3,0-0.4,0.1c-0.1,0.1-0.6,0.4-1,0.7
		c0.4-0.1,0.9-0.2,1.4-0.2V16.5L19.6,16.5z M20,17.5c-3.4-0.2-6.5,2.6-6.9,6.3c-0.4,3.7,2,6.9,5.4,7.1c3.4,0.2,6.5-2.6,6.9-6.3
		C25.9,20.8,23.4,17.7,20,17.5L20,17.5z M27.6,10.3c1.4,0.4,2.2,0.8,2.2,1.3c0,0.2-0.1,0.3-0.2,0.5C28.5,11.6,27.7,11,27.6,10.3
		L27.6,10.3z M25.2,24.9c-0.5,3.4-3.4,6-6.7,5.8c-3.8-0.2-5.9-4.1-5.2-7.5c0-0.2,0.2-0.2,0.3-0.1c0.7-3,3.3-5.2,6.3-5
		c3.2,0.2,5.4,3.1,5,6.5c0,0,0,0.1,0,0.1C25.1,24.6,25.2,24.7,25.2,24.9L25.2,24.9z M19.9,18.3c-3-0.2-5.8,2.3-6.2,5.6
		c-0.4,3.3,1.8,6.1,4.8,6.3c3,0.2,5.8-2.3,6.2-5.6C25.1,21.2,23,18.4,19.9,18.3L19.9,18.3z M18.9,23.7c-0.2,0.1-0.3,0.4-0.2,0.7
		c0.1,0.2,0.4,0.3,0.7,0.2c0.2-0.1,0.3-0.4,0.2-0.7C19.5,23.7,19.2,23.6,18.9,23.7L18.9,23.7z M22.5,22.5l1.4-0.6l0.3,0L24,22.1
		l-1.4,0.6c0.2,0.5,0.2,1.1,0.2,1.6c-0.2,2.1-2,3.6-3.9,3.5c-1.9-0.1-3.3-1.9-3-3.9c0.2-2.1,2-3.6,3.9-3.5
		C21,20.5,22,21.4,22.5,22.5L22.5,22.5z M19.8,23.7l2.6-1.1c-0.5-1.2-1.5-2-2.7-2.1c-1.9-0.1-3.6,1.4-3.8,3.5c-0.2,2,1.1,3.8,3,3.9
		c1.9,0.1,3.6-1.4,3.8-3.5c0.1-0.6,0-1.1-0.2-1.6l-2.6,1.1c0.1,0.3-0.1,0.7-0.4,0.9c-0.3,0.2-0.7,0.1-1-0.1l-1.3,0.9
		c-0.1-0.1-0.1-0.2-0.2-0.3c-0.1-0.2-0.2-0.5-0.2-0.7l1.5-0.3c0-0.3,0.2-0.6,0.5-0.7C19.2,23.2,19.6,23.4,19.8,23.7L19.8,23.7z"/>
</g>
</svg>
