<?xml version="1.0" encoding="utf-8"?>
<!-- Generator: Adobe Illustrator 18.1.1, SVG Export Plug-In . SVG Version: 6.00 Build 0)  -->
<svg version="1.1" id="Layer_1" xmlns="http://www.w3.org/2000/svg" xmlns:xlink="http://www.w3.org/1999/xlink" x="0px" y="0px"
	 viewBox="0 0 42 42.7" enable-background="new 0 0 42 42.7" xml:space="preserve">
<symbol  id="ic_x5F_phone" viewBox="0 -24 24 24">
	<path fill="#010101" d="M6.6-10.8c1.4-2.8,3.8-5.1,6.6-6.6l2.1,2.1c0.2,0.2,0.4,0.3,0.7,0.3h4c0.6,0,1-0.4,1-1v-4c0-0.6-0.4-1-1-1
		C10.6-21,3-13.4,3-4c0,0.6,0.4,1,1,1h4c0.6,0,1-0.4,1-1v-4c0-0.3-0.1-0.5-0.3-0.7L6.6-10.8z"/>
	<polygon fill="none" points="24,-24 0,-24 0,0 24,0 	"/>
</symbol>
<use xlink:href="#ic_x5F_phone"  width="24" height="24" id="XMLID_38_" y="-24" transform="matrix(0.9013 0 0 -0.9013 10.1847 12.6906)" overflow="visible" opacity="0.54"/>
</svg>
