<?xml version="1.0" encoding="utf-8"?>
<!-- Generator: Adobe Illustrator 18.1.1, SVG Export Plug-In . SVG Version: 6.00 Build 0)  -->
<svg version="1.1" id="Layer_1" xmlns="http://www.w3.org/2000/svg" xmlns:xlink="http://www.w3.org/1999/xlink" x="0px" y="0px"
	 viewBox="0 0 42 42.7" enable-background="new 0 0 42 42.7" xml:space="preserve">
<path fill="#79797A" d="M31.3,19.4c0-1.9-2.4-3.3-5.4-3.3s-5.4,1.5-5.4,3.3v0.7c-0.2,0-0.4,0-0.6,0c-3,0-5.4,1.5-5.4,3.3v2
	c0,1.9,2.4,3.3,5.4,3.3c3,0,5.4-1.5,5.4-3.3l0-0.7c0.2,0,0.4,0,0.6,0c3,0,5.4-1.5,5.4-3.3l0-1.9C31.3,19.5,31.3,19.4,31.3,19.4z
	 M25.9,16.8c2.5,0,4.6,1.2,4.6,2.5l0,0.2c-0.1,1.4-2.2,2.5-4.6,2.5c-2.5,0-4.6-1.2-4.6-2.6C21.3,18,23.4,16.8,25.9,16.8z M19.9,28.1
	c-2.5,0-4.6-1.2-4.6-2.6v-0.4c0.9,1,2.6,1.6,4.6,1.6c2,0,3.7-0.7,4.6-1.6l0,0.4C24.6,26.9,22.4,28.1,19.9,28.1z M19.9,26
	c-2.5,0-4.6-1.2-4.6-2.6c0-1.4,2.1-2.6,4.6-2.6c0.2,0,0.4,0,0.6,0v0.6c0,1.5,1.4,2.7,3.5,3.1C23.3,25.4,21.7,26,19.9,26z M25.9,24.1
	c-2.5,0-4.6-1.2-4.6-2.6v-0.4c0.9,1,2.6,1.6,4.6,1.6c2,0,3.7-0.7,4.6-1.6l0,0.4C30.6,22.9,28.4,24.1,25.9,24.1z"/>
</svg>
