<?xml version="1.0" encoding="utf-8"?>
<!-- Generator: Adobe Illustrator 18.1.1, SVG Export Plug-In . SVG Version: 6.00 Build 0)  -->
<svg version="1.1" id="Layer_1" xmlns="http://www.w3.org/2000/svg" xmlns:xlink="http://www.w3.org/1999/xlink" x="0px" y="0px"
	 viewBox="0 0 42 42.7" enable-background="new 0 0 42 42.7" xml:space="preserve">
<g>
	<g>
		<circle fill="#757575" cx="19" cy="32.1" r="1.7"/>
		<circle fill="#757575" cx="28.7" cy="32.1" r="1.7"/>
		<path fill="#757575" d="M15.5,15.9l-0.8-3h-0.9h-0.7h-2c-0.5,0-0.9,0.4-0.9,1c0,0.5,0.4,1,0.9,1h2.1L17.3,30l0,0h13.1v-2H18.8
			l-0.5-1.7h12.1v0l1.3-9.2L15.5,15.9z M29.5,21H26l0.3-2.7l3.6,0.2L29.5,21z M21,21l-0.7-3.1l5.1,0.3L25,21H21z M25,21.7l-0.3,3
			h-2.9l-0.7-3L25,21.7L25,21.7z M19.3,17.9L20,21h-3.1L16,17.6L19.3,17.9z M17.9,24.6l-0.8-3h3.1l0.7,3H17.9L17.9,24.6z M25.6,24.6
			l0.3-3h3.5l-0.4,3H25.6z"/>
	</g>
	<polygon fill="#757575" points="22.3,15.7 21.9,12.2 16.9,13.1 17.2,15.3 	"/>
	<polygon fill="#757575" points="30.4,16.2 30.9,14.6 24,12.9 23.2,15.7 	"/>
</g>
</svg>
