<?xml version="1.0" encoding="utf-8"?>
<!-- Generator: Adobe Illustrator 18.1.1, SVG Export Plug-In . SVG Version: 6.00 Build 0)  -->
<svg version="1.1" id="Layer_1" xmlns="http://www.w3.org/2000/svg" xmlns:xlink="http://www.w3.org/1999/xlink" x="0px" y="0px"
	 viewBox="0 0 40.5 40.5" enable-background="new 0 0 40.5 40.5" xml:space="preserve">
<g>
	<path fill="#5F5D5D" d="M9.3,11.3c-0.4-0.4-1-0.6-1.8-0.6H6.3l-0.6-0.2V11c0,1,1,2,2,2h1.3v0.2c-0.4,0.1-1,0.4-1.4,0.8
		C7.2,14.5,7,15.2,7.1,16l1.5,12c0.1,0.5,0.5,1,1,1h0c0.5,0,0.9-0.5,1-1l1.5-12c0.1-0.7-0.2-1.4-0.7-2c-0.4-0.4-0.9-0.8-1.6-0.8
		v-0.6v-0.8c0-0.1,0.2,0.1,0.2,0.1h1.5c1,0,1.7-1.1,1.7-2.1V9.6h-1.5C10.5,9.6,9.6,10.3,9.3,11.3z M7.7,12.2c-0.5,0-0.9-0.4-1-0.7
		h0.9c0.3,0,1.2,0,1.6,0.7H7.7z M10.9,14.6c0.3,0.4,0.5,0.8,0.4,1.3L11,19.3H9.4V20h1.4l-0.6,4.8H9.4v0.7h0.7L9.9,28
		c0,0.1-0.1,0.2-0.3,0.2h0c-0.1,0-0.2-0.1-0.3-0.2l-0.7-5.3h0.7v-0.7H8.6L8,17.1h2.2v-0.7H7.9l0-0.4C7.8,15.5,8,15,8.3,14.6
		c0.3-0.4,0.8-0.5,1.3-0.5h0C10.1,14.1,10.6,14.3,10.9,14.6z M11.5,11.1h-1.2c0.3-0.4,0.8-0.7,1.4-0.7h0.9
		C12.4,10.7,12,11.1,11.5,11.1z"/>
	<path fill="#5F5D5D" d="M19.1,23.4v1.5l2.5-1.3c0.7-0.3,1.2-1.2,1.2-2.2V20l-2.5,1.3C19.6,21.6,19.1,22.5,19.1,23.4z M20.6,21.9
		l1.5-0.7v0.2c0,0.7-0.4,1.3-0.8,1.5l-1.5,0.7v-0.2C19.8,22.8,20.2,22.1,20.6,21.9z"/>
	<path fill="#5F5D5D" d="M17.5,21.3L15,20v1.5c0,1,0.5,1.8,1.2,2.2l2.5,1.3v-1.5C18.7,22.5,18.2,21.6,17.5,21.3z M18,23.7L16.5,23
		c-0.4-0.2-0.8-0.8-0.8-1.5v-0.2l1.5,0.7c0.4,0.2,0.8,0.8,0.8,1.5V23.7z"/>
	<path fill="#5F5D5D" d="M19.1,27.2v1.5l2.5-1.3c0.7-0.3,1.2-1.2,1.2-2.2v-1.5L20.2,25C19.6,25.3,19.1,26.2,19.1,27.2z M20.6,25.6
		l1.5-0.7v0.2c0,0.7-0.4,1.3-0.8,1.5l-1.5,0.7v-0.2C19.8,26.5,20.2,25.9,20.6,25.6z"/>
	<path fill="#5F5D5D" d="M17.5,25L15,23.7v1.5c0,1,0.5,1.8,1.2,2.2l2.5,1.3v-1.5C18.7,26.2,18.2,25.3,17.5,25z M18,27.4l-1.5-0.7
		c-0.4-0.2-0.8-0.8-0.8-1.5v-0.2l1.5,0.7c0.4,0.2,0.8,0.8,0.8,1.5V27.4z"/>
	<path fill="#5F5D5D" d="M19.1,19.7v1.5l2.5-1.3c0.7-0.3,1.2-1.2,1.2-2.2v-1.5l-2.5,1.3C19.6,17.9,19.1,18.8,19.1,19.7z M20.6,18.2
		l1.5-0.7v0.2c0,0.7-0.4,1.3-0.8,1.5L19.8,20v-0.2C19.8,19.1,20.2,18.4,20.6,18.2z"/>
	<path fill="#5F5D5D" d="M17.5,17.6L15,16.3v1.5c0,1,0.5,1.8,1.2,2.2l2.5,1.3v-1.5C18.7,18.8,18.2,17.9,17.5,17.6z M18,20l-1.5-0.7
		c-0.4-0.2-0.8-0.8-0.8-1.5v-0.2l1.5,0.7c0.4,0.2,0.8,0.8,0.8,1.5V20z"/>
	<path fill="#5F5D5D" d="M19.1,16v1.5l2.5-1.3c0.7-0.3,1.2-1.2,1.2-2.2v-1.5l-2.5,1.3C19.6,14.2,19.1,15.1,19.1,16z M20.6,14.5
		l1.5-0.7V14c0,0.7-0.4,1.3-0.8,1.5l-1.5,0.7V16C19.8,15.3,20.2,14.7,20.6,14.5z"/>
	<path fill="#5F5D5D" d="M17.5,13.9L15,12.5V14c0,1,0.5,1.8,1.2,2.2l2.5,1.3V16C18.7,15.1,18.2,14.2,17.5,13.9z M18,16.3l-1.5-0.7
		c-0.4-0.2-0.8-0.8-0.8-1.5v-0.2l1.5,0.7c0.4,0.2,0.8,0.8,0.8,1.5V16.3z"/>
	<path fill="#5F5D5D" d="M33.2,16.9v-1.4l-2.1,1.2c-0.6,0.3-0.9,1.1-0.9,1.9V20l2.1-1.2C32.9,18.5,33.2,17.7,33.2,16.9z M32,18.1
		l-1,0.6v-0.1c0-0.6,0.1-1.1,0.5-1.3l1-0.6v0.1C32.4,17.4,32.3,18,32,18.1z"/>
	<path fill="#5F5D5D" d="M20,10.4L18.9,9l-1.1,1.4c-0.6,0.7-0.6,1.9,0,2.6l1.1,1.4L20,13C20.5,12.3,20.5,11.1,20,10.4z M19.4,12.5
		l-0.5,0.7l-0.5-0.7c-0.4-0.5-0.4-1.2,0-1.7l0.5-0.7l0.5,0.7C19.7,11.3,19.7,12.1,19.4,12.5z"/>
	<path fill="#5F5D5D" d="M31.9,19.9c-0.4,0-0.8,0.1-1.2,0.3c-0.4,0.2-0.8,0.2-1.1,0c-0.8-0.4-1.8-0.4-2.6-0.1c-1.1,0.5-2,1.7-2,2.9
		v0.6c0,2.7,2.1,5,4.7,5.1c0.1,0,0.2,0.1,0.3,0.1h0c1.3,0,2.5-0.6,3.5-1.5c0.9-0.9,1.4-2.2,1.4-3.5c0-0.4,0-0.5,0-0.5
		c0-0.1,0-0.1,0-0.4C34.9,21.3,33.5,19.9,31.9,19.9z M34.2,23.4c0,0.1,0,0.1,0,0.5c0,1.1-0.4,2.1-1.2,2.9C32.2,27.6,31.1,28,30,28h0
		c-0.1,0-0.2,0-0.3,0c-2.2-0.1-4-2-4-4.3v-0.6c0-1,0.6-1.9,1.5-2.3c0.3-0.1,0.6-0.2,0.9-0.2c0.3,0,0.7,0.1,1,0.2
		c0.5,0.2,1.1,0.2,1.7,0c0.3-0.1,0.6-0.2,0.9-0.2c1.3,0,2.3,1,2.3,2.3C34.2,23.3,34.2,23.3,34.2,23.4z"/>
</g>
</svg>
