<?xml version="1.0" encoding="utf-8"?>
<!-- Generator: Adobe Illustrator 18.1.1, SVG Export Plug-In . SVG Version: 6.00 Build 0)  -->
<svg version="1.1" id="Layer_1" xmlns="http://www.w3.org/2000/svg" xmlns:xlink="http://www.w3.org/1999/xlink" x="0px" y="0px"
	 viewBox="0 0 42 42.7" enable-background="new 0 0 42 42.7" xml:space="preserve">
<symbol  id="ic_x5F_place" viewBox="0 -24 24 24">
	<g>
		<path fill="#010101" d="M12-2C8.1-2,5-5.1,5-9c0-5.2,7-13,7-13s7,7.8,7,13C19-5.1,15.9-2,12-2z M12-12.2c-1.8,0-3.2,1.4-3.2,3.2
			c0,1.8,1.4,3.2,3.2,3.2c1.8,0,3.2-1.4,3.2-3.2C15.2-10.8,13.8-12.2,12-12.2z"/>
	</g>
	<polygon fill="none" points="24,-24 0,-24 0,0 24,0 	"/>
</symbol>
<use xlink:href="#ic_x5F_place"  width="24" height="24" id="XMLID_46_" y="-24" transform="matrix(0.9716 0 0 -0.9716 9.3404 10.1075)" overflow="visible" opacity="0.54"/>
</svg>
