<?xml version="1.0" encoding="utf-8"?>
<!-- Generator: Adobe Illustrator 18.1.1, SVG Export Plug-In . SVG Version: 6.00 Build 0)  -->
<svg version="1.1" id="Layer_1" xmlns="http://www.w3.org/2000/svg" xmlns:xlink="http://www.w3.org/1999/xlink" x="0px" y="0px"
	 viewBox="0 0 42 42.7" enable-background="new 0 0 42 42.7" xml:space="preserve">
<path fill="#5F5D5D" d="M29.3,12.8H11.9c-1.3,0-2.4,1.1-2.4,2.4v12.1c0,1.3,1.1,2.4,2.4,2.4h17.4c1.3,0,2.4-1.1,2.4-2.4V15.2
	C31.7,13.8,30.6,12.8,29.3,12.8z M16.2,16c1.3,0,2.4,1.1,2.4,2.4c0,1.3-1.1,2.4-2.4,2.4c-1.3,0-2.4-1.1-2.4-2.4
	C13.8,17.1,14.9,16,16.2,16z M20,27.6h-7.6c-0.4,0-0.8-0.3-0.9-0.7c0.3-2.9,2.3-5.1,4.8-5.1s4.5,2.2,4.8,5.1
	C20.9,27.3,20.5,27.6,20,27.6z M28.5,20.8h-7.1c-0.4,0-0.8-0.4-0.8-0.8c0-0.4,0.3-0.8,0.8-0.8h7.1c0.4,0,0.8,0.4,0.8,0.8
	C29.3,20.4,28.9,20.8,28.5,20.8z M28.5,17.6h-7.1c-0.4,0-0.8-0.4-0.8-0.8c0-0.4,0.3-0.8,0.8-0.8h7.1c0.4,0,0.8,0.4,0.8,0.8
	C29.3,17.2,28.9,17.6,28.5,17.6z"/>
</svg>
