<?xml version="1.0" encoding="utf-8"?>
<!-- Generator: Adobe Illustrator 18.1.1, SVG Export Plug-In . SVG Version: 6.00 Build 0)  -->
<svg version="1.1" id="Layer_1" xmlns="http://www.w3.org/2000/svg" xmlns:xlink="http://www.w3.org/1999/xlink" x="0px" y="0px"
	 viewBox="0 0 42 42.7" enable-background="new 0 0 42 42.7" xml:space="preserve">
<g>
	<path fill="#757575" d="M32.3,27.6l-4.1-4.1c0,0-0.1,0-0.1,0S28,23.5,28,23.6v1.9h-1.4c-1.1,1.3-2.7,2.2-4.5,2.4v1.9
		c0,0.1,0.1,0.1,0.1,0.1H28v1.9c0,0,0,0.1,0.1,0.1c0,0,0,0,0,0c0,0,0.1,0,0.1,0l4.1-4.1C32.3,27.7,32.3,27.6,32.3,27.6z"/>
	<path fill="#757575" d="M28.1,23.5C28.1,23.5,28.2,23.5,28.1,23.5l4.2,4.1c0,0,0,0.1,0,0.2l-4.1,4.1c0,0-0.1,0-0.1,0c0,0,0,0,0,0
		c0,0-0.1-0.1-0.1-0.1v-1.9h-5.8c-0.1,0-0.1-0.1-0.1-0.1v-1.9c1.8-0.3,3.3-1.1,4.5-2.4H28v-1.9C28,23.5,28,23.5,28.1,23.5
		C28.1,23.5,28.1,23.5,28.1,23.5"/>
	<path fill="#757575" d="M19.9,13.2v-1.9c0-0.1-0.1-0.1-0.1-0.1H14V9.4c0,0,0-0.1-0.1-0.1c0,0-0.1,0-0.1,0l-4.1,4.1c0,0,0,0.1,0,0.2
		l4.1,4.1c0,0,0.1,0,0.1,0c0,0,0,0,0,0c0,0,0.1-0.1,0.1-0.1v-1.9h1.4C16.6,14.4,18.1,13.5,19.9,13.2z"/>
	<path fill="#757575" d="M13.9,9.3C13.9,9.3,13.9,9.3,13.9,9.3C14,9.3,14,9.3,14,9.4v1.9h5.8c0.1,0,0.1,0.1,0.1,0.1v1.9
		c-1.8,0.3-3.3,1.1-4.5,2.4H14v1.9c0,0,0,0.1-0.1,0.1c0,0,0,0,0,0c0,0-0.1,0-0.1,0l-4.1-4.1c0,0,0-0.1,0-0.2L13.9,9.3
		C13.8,9.3,13.9,9.3,13.9,9.3"/>
	<g>
		<path fill="#757575" d="M21,31c-5.7,0-10.4-4.7-10.4-10.4c0-1.5,0.3-3,1-4.3l-0.7-0.7c-0.8,1.5-1.2,3.2-1.2,5
			c0,6.3,5.1,11.4,11.4,11.4c2,0,3.9-0.5,5.5-1.4h-2.3C23.2,30.8,22.1,31,21,31z"/>
		<path fill="#757575" d="M21,9.2c-2,0-3.9,0.5-5.5,1.4h2.3c1-0.3,2-0.5,3.1-0.5c5.7,0,10.4,4.7,10.4,10.4c0,1.5-0.3,3-1,4.3
			l0.7,0.7c0.8-1.5,1.2-3.2,1.2-5C32.4,14.3,27.3,9.2,21,9.2z"/>
	</g>
	<path fill="#757575" d="M21,13.9c-3.7,0-6.7,3-6.7,6.7s3,6.7,6.7,6.7c3.7,0,6.7-3,6.7-6.7S24.7,13.9,21,13.9z M21.4,24.3v1.3h-0.8
		v-1.2c-0.7,0-1.4-0.2-1.9-0.5L19,23c0.4,0.3,1.1,0.5,1.8,0.5c0.9,0,1.5-0.5,1.5-1.2c0-0.7-0.5-1.1-1.4-1.5c-1.2-0.5-2-1.1-2-2.1
		c0-1,0.7-1.8,1.8-2v-1.2h0.8v1.2c0.7,0,1.2,0.2,1.6,0.4L22.7,18c-0.3-0.1-0.8-0.4-1.5-0.4c-0.9,0-1.3,0.6-1.3,1.1
		c0,0.6,0.5,1,1.5,1.4c1.3,0.5,1.9,1.2,1.9,2.2C23.3,23.2,22.6,24.1,21.4,24.3z"/>
</g>
</svg>
