<?xml version="1.0" encoding="utf-8"?>
<!-- Generator: Adobe Illustrator 18.1.1, SVG Export Plug-In . SVG Version: 6.00 Build 0)  -->
<svg version="1.1" id="Layer_1" xmlns="http://www.w3.org/2000/svg" xmlns:xlink="http://www.w3.org/1999/xlink" x="0px" y="0px"
	 viewBox="0 0 42 42.7" enable-background="new 0 0 42 42.7" xml:space="preserve">
<g>
	<path fill="#5F5D5D" d="M11.6,17c1.1,0,2.2,0,3.2,0c0,0.4,0,0.7,0,1.1c-0.4,0-0.9,0-1.3,0c0,0,0,0,0,0c2.2,1.9,4.5,3.9,6.8,5.8
		c2.3-1.9,4.5-3.9,6.8-5.8c-0.5,0-0.9,0-1.3,0c0-0.4,0-0.7,0-1.1c1.1,0,2.2,0,3.2,0c0,4.3,0,8.7,0,13c-5.8,0-11.6,0-17.4,0
		C11.6,25.7,11.6,21.3,11.6,17z M13.4,28.9c4.6,0,9.2,0,13.8,0c-1.6-1.8-3.2-3.6-4.8-5.4c-0.7,0.6-1.4,1.2-2.1,1.8
		c-0.7-0.6-1.4-1.2-2.1-1.8C16.6,25.3,15,27.1,13.4,28.9z M23.2,22.8c1.6,1.8,3.1,3.5,4.7,5.3c0-3.1,0-6.2,0-9.3
		C26.3,20.1,24.8,21.5,23.2,22.8z M12.7,28.1c1.6-1.8,3.1-3.6,4.7-5.3c-1.6-1.3-3.1-2.7-4.7-4C12.7,21.9,12.7,25,12.7,28.1z"/>
	<path fill="#5F5D5D" d="M24.6,15.9c-1.5,1.5-2.9,2.9-4.3,4.3c-1.4-1.4-2.9-2.9-4.3-4.3c0.9,0,1.8,0,2.7,0c0-1.1,0-2.2,0-3.3
		c1.1,0,2.2,0,3.3,0c0,1.1,0,2.2,0,3.3C22.8,15.9,23.7,15.9,24.6,15.9z"/>
</g>
</svg>
