<?xml version="1.0" encoding="utf-8"?>
<!-- Generator: Adobe Illustrator 18.1.1, SVG Export Plug-In . SVG Version: 6.00 Build 0)  -->
<svg version="1.1" id="Layer_1" xmlns="http://www.w3.org/2000/svg" xmlns:xlink="http://www.w3.org/1999/xlink" x="0px" y="0px"
	 viewBox="0 0 42 42.7" enable-background="new 0 0 42 42.7" xml:space="preserve">
<g>
	<g>
		<g>
			<path fill="#79797A" d="M30.6,24.2l-3.2-1.6V20l1.7-0.8c0.1,0,0.2-0.1,0.2-0.2c0-0.1,0-0.2-0.1-0.3L27.4,16
				c-0.1-0.1-0.2-0.2-0.2-0.2l-6.3-3h0c0,0,0,0-0.1,0c0,0,0,0-0.1,0c0,0-0.1,0-0.1,0c0,0,0,0,0,0l-5.8,2.8c-0.1,0.1-0.2,0.2-0.2,0.2
				l-1.5,2.8c0,0.1-0.1,0.2,0,0.3c0,0.1,0.1,0.2,0.2,0.2l0.3,0.1L11,20.5c0,0-0.2,0.1-0.2,0.3v6.7c0,0.1,0.1,0.2,0.2,0.3l6.3,3.1
				c0,0,0.1,0.1,0.3,0l0.4-0.2V31c0,0.1,0.1,0.2,0.2,0.3l6.3,3.1c0,0,0.1,0.1,0.3,0l5.8-2.9c0.1-0.1,0.2-0.2,0.2-0.3v-6.7
				C30.8,24.3,30.6,24.2,30.6,24.2z M29.7,24.5l-1.9,0.9l-2.7-1.3l1.9-0.9L29.7,24.5z M21.6,25.2v-5.1l0.5,0.8l0.2,0.3l0.5,0.7
				c0,0,0.1,0.1,0.1,0.2C23,22,23.1,22,23.1,22c0.1,0,0.1,0,0.1,0l0.3-0.1l3.2-1.5v2.4L21.6,25.2z M28.5,18.7l-4.9,2.4l-0.3,0.2
				l-0.7-1l-0.8-1.1l5.2-2.6L28.5,18.7z M21.1,13.6l5.3,2.5l-1.1,0.5l-4.2-2V13.6z M20.7,15.3l3.7,1.8l-3.2,1.6L21,18.5l2.6-1.3
				c0.1,0,0.1-0.1,0.1-0.1c0-0.1-0.1-0.1-0.1-0.1l-2.8,1.4h0l-0.6-0.3l0,0h0l2.7-1.3c0.1,0,0.1-0.1,0.1-0.1c0-0.1-0.1-0.1-0.1-0.1
				L19.9,18l0,0l-0.6-0.3l0,0l2.7-1.3c0.1,0,0.1-0.1,0.1-0.1c0-0.1-0.1-0.1-0.1-0.1L19,17.6l-0.6-0.3l2.7-1.3c0.1,0,0.1-0.1,0.1-0.1
				c0,0-0.1-0.1-0.1-0.1c0,0,0,0-0.1,0l-2.9,1.4h0v0h0l-0.6-0.3L20.7,15.3z M20.4,13.6v1.1l-3.6,1.8h0L15.7,16L20.4,13.6z
				 M15.1,16.4l5.7,2.8l-0.1,0.2L20.4,20l-0.8,1.4l-4.5-2.2l-0.8-0.4l-0.5-0.2L15.1,16.4z M14.3,19.6l0.3,0.2v2.3l-2.7-1.3
				L14.3,19.6z M17.1,30l-5.7-2.8v-6l5.7,2.8V30z M18,29.9L17.8,30v-5.6l0.2,0.1V29.9z M18.2,23.9l-2.9-1.4V20l4.3,2.1
				c0,0,0.1,0,0.1,0c0.1,0,0.2-0.1,0.3-0.2l0.9-1.7v4.9l-1.8-0.9l-0.7-0.4L18.2,23.9z M24.4,33.6l-5.7-2.8v-6l5.7,2.8V33.6z
				 M24.7,27L22,25.7l2.4-1.2l2.7,1.3L24.7,27z M30.2,31L25,33.6v-6l5.2-2.5V31z"/>
		</g>
	</g>
</g>
</svg>
