<?xml version="1.0" encoding="utf-8"?>
<!-- Generator: Adobe Illustrator 18.1.1, SVG Export Plug-In . SVG Version: 6.00 Build 0)  -->
<svg version="1.1" id="Layer_1" xmlns="http://www.w3.org/2000/svg" xmlns:xlink="http://www.w3.org/1999/xlink" x="0px" y="0px"
	 viewBox="0 0 42 42.7" enable-background="new 0 0 42 42.7" xml:space="preserve">
<symbol  id="ic_x5F_mail_x0D_" viewBox="0 -24 24 24">
	<path fill="#010101" d="M20-4H4C2.9-4,2-4.9,2-6l0-12c0-1.1,0.9-2,2-2h16c1.1,0,2,0.9,2,2v12C22-4.9,21.1-4,20-4z M20-8l-8-5L4-8v2
		l8-5l8,5V-8z"/>
	<polygon fill="none" points="24,-24 0,-24 0,0 24,0 	"/>
</symbol>
<use xlink:href="#ic_x5F_mail_x0D_"  width="24" height="24" y="-24" transform="matrix(0.9468 0 0 -0.9468 9.6385 11.6253)" overflow="visible" opacity="0.54"/>
</svg>
