<?xml version="1.0" encoding="utf-8"?>
<!-- Generator: Adobe Illustrator 18.1.1, SVG Export Plug-In . SVG Version: 6.00 Build 0)  -->
<svg version="1.1" id="Layer_1" xmlns="http://www.w3.org/2000/svg" xmlns:xlink="http://www.w3.org/1999/xlink" x="0px" y="0px"
	 viewBox="0 0 40.5 41.1" enable-background="new 0 0 40.5 41.1" xml:space="preserve">
<path fill="#5F5D5D" d="M21.4,21.4v-2.7h2.7v2.7H21.4z M16,18.7h-2.7v2.7H16V18.7z M11.9,26.7v-9.4h14.9V20h1.4v-5.3
	c0-0.8-0.7-1.5-1.5-1.5h-0.6v0.7c0,0.7-0.6,1.4-1.4,1.4c-0.7,0-1.4-0.6-1.4-1.4v-0.7h-8.1v0.7c0,0.7-0.6,1.4-1.4,1.4
	c-0.7,0-1.4-0.6-1.4-1.4v-0.7H12c-0.8,0-1.5,0.7-1.5,1.5v11.9c0,0.8,0.7,1.5,1.5,1.5h8v-1.4h-8C12,26.8,11.9,26.8,11.9,26.7z
	 M14,14.6c0.4,0,0.7-0.3,0.7-0.7v-2.7c0-0.4-0.3-0.7-0.7-0.7s-0.7,0.3-0.7,0.7v2.7C13.3,14.3,13.6,14.6,14,14.6z M24.8,14.6
	c0.4,0,0.7-0.3,0.7-0.7v-2.7c0-0.4-0.3-0.7-0.7-0.7s-0.7,0.3-0.7,0.7v2.7C24.1,14.3,24.4,14.6,24.8,14.6z M29.4,25
	c-0.3-0.3-0.7-0.3-1,0l-2.1,2.1l-1-1c-0.3-0.3-0.7-0.3-1,0c-0.3,0.3-0.3,0.7,0,1l1,1l1,1l1-1l2.1-2.1C29.6,25.7,29.6,25.3,29.4,25z
	 M32.3,26.8c0,3-2.4,5.4-5.4,5.4c-3,0-5.4-2.4-5.4-5.4s2.4-5.4,5.4-5.4C29.9,21.4,32.3,23.8,32.3,26.8z M30.9,26.8
	c0-2.2-1.8-4.1-4.1-4.1c-2.2,0-4.1,1.8-4.1,4.1c0,2.2,1.8,4.1,4.1,4.1C29.1,30.9,30.9,29.1,30.9,26.8z M17.4,25.5h2.7v-2.7h-2.7
	V25.5z M17.4,21.4h2.7v-2.7h-2.7V21.4z M13.3,25.5H16v-2.7h-2.7V25.5z"/>
</svg>
