<?xml version="1.0" encoding="utf-8"?>
<!-- Generator: Adobe Illustrator 19.1.0, SVG Export Plug-In . SVG Version: 6.00 Build 0)  -->
<svg version="1.1" id="Layer_1" xmlns="http://www.w3.org/2000/svg" xmlns:xlink="http://www.w3.org/1999/xlink" x="0px" y="0px"
	 viewBox="0 0 42.7 42" enable-background="new 0 0 42.7 42" xml:space="preserve">
<path fill="#5F5D5D" d="M33.3,23.8v-4.4l-11.6,0v-3.7c1.9-0.2,3.4-1.8,3.4-3.8c0-2.1-1.7-3.8-3.8-3.8c-2.1,0-3.8,1.7-3.8,3.8
	c0,2,1.5,3.6,3.4,3.8v3.7l-11.6,0v4.4c-1.9,0.2-3.4,1.8-3.4,3.8c0,2.1,1.7,3.8,3.8,3.8c2.1,0,3.8-1.7,3.8-3.8c0-2-1.5-3.6-3.4-3.8
	V20H21v3.7c-1.9,0.2-3.4,1.8-3.4,3.8c0,2.1,1.7,3.8,3.8,3.8c2.1,0,3.8-1.7,3.8-3.8c0-2-1.5-3.6-3.4-3.8V20h10.9v3.7
	c-1.9,0.2-3.4,1.8-3.4,3.8c0,2.1,1.7,3.8,3.8,3.8c2.1,0,3.8-1.7,3.8-3.8C36.8,25.6,35.2,23.9,33.3,23.8z"/>
</svg>
