<?xml version="1.0" encoding="utf-8"?>
<!-- Generator: Adobe Illustrator 19.1.0, SVG Export Plug-In . SVG Version: 6.00 Build 0)  -->
<svg version="1.1" id="Layer_1" xmlns="http://www.w3.org/2000/svg" xmlns:xlink="http://www.w3.org/1999/xlink" x="0px" y="0px"
	 viewBox="0 0 42.7 42" enable-background="new 0 0 42.7 42" xml:space="preserve">
<symbol  id="ic_x5F_moreVert" viewBox="0 -24 12 24">
	<polygon fill="none" points="12,-24 0,-24 0,0 12,0 	"/>
	<path fill="#010101" d="M6-8c1.1,0,2,0.9,2,2S7.1-4,6-4S4-4.9,4-6S4.9-8,6-8z M6-10c-1.1,0-2-0.9-2-2s0.9-2,2-2s2,0.9,2,2
		S7.1-10,6-10z M6-16c-1.1,0-2-0.9-2-2s0.9-2,2-2s2,0.9,2,2S7.1-16,6-16z"/>
</symbol>
<use xlink:href="#ic_x5F_moreVert"  width="12" height="24" id="XMLID_141_" y="-24" transform="matrix(1 0 0 -1 15.3316 9)" overflow="visible" opacity="0.54"/>
</svg>
