<?xml version="1.0" encoding="utf-8"?>
<!-- Generator: Adobe Illustrator 18.1.1, SVG Export Plug-In . SVG Version: 6.00 Build 0)  -->
<svg version="1.1" id="Layer_1" xmlns="http://www.w3.org/2000/svg" xmlns:xlink="http://www.w3.org/1999/xlink" x="0px" y="0px"
	 viewBox="0 0 41.1 41.1" enable-background="new 0 0 41.1 41.1" xml:space="preserve">
<path fill="#5F5D5D" d="M14.9,14c0,0.4-0.3,0.7-0.7,0.7l0,0c-0.4,0-0.7-0.3-0.7-0.7v-2.7c0-0.4,0.3-0.7,0.7-0.7l0,0
	c0.4,0,0.7,0.3,0.7,0.7V14z M25.7,11.3c0-0.4-0.3-0.7-0.7-0.7l0,0c-0.4,0-0.7,0.3-0.7,0.7V14c0,0.4,0.3,0.7,0.7,0.7l0,0
	c0.4,0,0.7-0.3,0.7-0.7V11.3z M27.1,22.9c-2.2,0-4.1,1.8-4.1,4.1c0,2.2,1.8,4.1,4.1,4.1c2.2,0,4.1-1.8,4.1-4.1
	C31.2,24.7,29.3,22.9,27.1,22.9 M27.1,21.5c3,0,5.4,2.4,5.4,5.4s-2.4,5.4-5.4,5.4c-3,0-5.4-2.4-5.4-5.4S24.1,21.5,27.1,21.5
	L27.1,21.5z M16.2,18.8h-2.7v2.7h2.7V18.8z M16.2,22.9h-2.7v2.7h2.7V22.9z M20.3,18.8h-2.7v2.7h2.7V18.8z M20.3,22.9h-2.7v2.7h2.7
	V22.9z M20.3,27h-8c-0.1,0-0.1-0.1-0.1-0.1v-9.4h14.9v2.7h1.4v-5.3c0-0.8-0.7-1.5-1.5-1.5h-0.6V14c0,0.7-0.6,1.4-1.4,1.4
	c-0.7,0-1.4-0.6-1.4-1.4v-0.7h-8.2V14c0,0.7-0.6,1.4-1.4,1.4c-0.8,0-1.4-0.6-1.4-1.4v-0.7h-0.6c-0.8,0-1.5,0.7-1.5,1.5v12
	c0,0.8,0.7,1.5,1.5,1.5h8V27z M24.4,18.8h-2.7v2.7h2.7V18.8z M29.1,26.3h-1.4v-1.4c0-0.4-0.3-0.7-0.7-0.7c-0.4,0-0.7,0.3-0.7,0.7
	v1.4h-1.4c-0.4,0-0.7,0.3-0.7,0.7c0,0.4,0.3,0.7,0.7,0.7h1.4V29c0,0.4,0.3,0.7,0.7,0.7c0.4,0,0.7-0.3,0.7-0.7v-1.4h1.4
	c0.4,0,0.7-0.3,0.7-0.7C29.8,26.6,29.5,26.3,29.1,26.3z"/>
</svg>
