<?xml version="1.0" encoding="utf-8"?>
<!-- Generator: Adobe Illustrator 18.1.1, SVG Export Plug-In . SVG Version: 6.00 Build 0)  -->
<svg version="1.1" id="Layer_1" xmlns="http://www.w3.org/2000/svg" xmlns:xlink="http://www.w3.org/1999/xlink" x="0px" y="0px"
	 viewBox="0 0 41.4 42.1" enable-background="new 0 0 41.4 42.1" xml:space="preserve">
<path fill="#5F5D5D" d="M27.8,15.7h-1.9V13c0-0.6-0.5-1.1-1.1-1.1h-9.2c-0.6,0-1.1,0.5-1.1,1.1v2.8h-1.9c-0.6,0-1.1,0.5-1.1,1.1V23
	c0,0.6,0.5,1.1,1.1,1.1h1.9v3.8c0,0.6,0.5,1.1,1.1,1.1h9.2c0.6,0,1.1-0.5,1.1-1.1v-3.8h1.9c0.6,0,1.1-0.5,1.1-1.1v-6.2
	C28.9,16.2,28.4,15.7,27.8,15.7z M15.8,13.2h8.8v2.6h-8.8V13.2z M24.6,27.7h-8.8v-5.6h8.8V27.7z M27.6,22.8h-1.7v-1.9H14.6v1.9h-1.7
	V17h14.7V22.8z M24.2,18.8c0.2,0,0.4-0.2,0.4-0.4c0-0.2-0.2-0.4-0.4-0.4c-0.2,0-0.4,0.2-0.4,0.4C23.8,18.6,24,18.8,24.2,18.8z
	 M25.9,19.1c0.3,0,0.6-0.3,0.6-0.6c0-0.3-0.3-0.6-0.6-0.6c-0.3,0-0.6,0.3-0.6,0.6C25.3,18.8,25.6,19.1,25.9,19.1z M17.8,26.6h2.8
	c0.4,0,0.6-0.3,0.6-0.6s-0.3-0.6-0.6-0.6h-2.8c-0.4,0-0.6,0.3-0.6,0.6S17.4,26.6,17.8,26.6z M17.8,24.5h4.9c0.4,0,0.6-0.3,0.6-0.6
	c0-0.4-0.3-0.6-0.6-0.6h-4.9c-0.4,0-0.6,0.3-0.6,0.6C17.1,24.2,17.4,24.5,17.8,24.5z"/>
</svg>
