<?xml version="1.0" encoding="utf-8"?>
<!-- Generator: Adobe Illustrator 19.1.0, SVG Export Plug-In . SVG Version: 6.00 Build 0)  -->
<svg version="1.1" id="Layer_1" xmlns="http://www.w3.org/2000/svg" xmlns:xlink="http://www.w3.org/1999/xlink" x="0px" y="0px"
	 viewBox="0 0 42.7 42" enable-background="new 0 0 42.7 42" xml:space="preserve">
<path fill="#5F5D5D" d="M30.8,21.4c-0.7,0-1.3,0.4-1.5,1h0h-2.8l-1.8-4.8c-0.1-0.3-0.5-0.6-0.8-0.5c-0.4,0-0.7,0.3-0.8,0.6l-1.2,5.3
	l-1.1-12.2c0-0.4-0.3-0.7-0.8-0.8c-0.4,0-0.8,0.2-0.9,0.6l-3.5,11.6H11c-0.4,0-0.8,0.4-0.8,0.8c0,0.4,0.4,0.8,0.8,0.8h5.2
	c0.4,0,0.7-0.3,0.8-0.6l2.4-8.1l1.2,13.1c0,0.4,0.4,0.7,0.8,0.8c0,0,0,0,0.1,0c0.4,0,0.7-0.3,0.8-0.6l1.7-7.7l1,2.7
	c0.1,0.3,0.4,0.5,0.8,0.5h3.3c0.1,0,0.1,0,0.1,0c0.3,0.5,0.8,0.8,1.4,0.8c1,0,1.7-0.8,1.7-1.7C32.5,22.1,31.7,21.4,30.8,21.4z"/>
</svg>
