<?xml version="1.0" encoding="utf-8"?>
<!-- Generator: Adobe Illustrator 18.1.1, SVG Export Plug-In . SVG Version: 6.00 Build 0)  -->
<svg version="1.1" id="Layer_1" xmlns="http://www.w3.org/2000/svg" xmlns:xlink="http://www.w3.org/1999/xlink" x="0px" y="0px"
	 viewBox="0 0 40 40" enable-background="new 0 0 40 40" xml:space="preserve">
<g id="Layer_2_4_">
	<polygon fill="#5F5D5D" points="20.5,17.8 12.9,17.8 12.9,16.8 20.5,16.8 	"/>
	<polygon fill="#5F5D5D" points="20.5,20.2 12.9,20.2 12.9,19.3 20.5,19.3 	"/>
	<polygon fill="#5F5D5D" points="19.3,25.2 12.9,25.2 12.9,24.2 19.3,24.2 	"/>
	<polygon fill="#5F5D5D" points="19.3,27.6 12.9,27.6 12.9,26.7 19.3,26.7 	"/>
	<polygon fill="#5F5D5D" points="20.5,22.7 12.9,22.7 12.9,21.8 20.5,21.8 	"/>
	<polygon fill="#5F5D5D" points="9.5,28.6 8.5,28.6 8.5,12.2 19.7,12.2 19.7,13.2 9.5,13.2 	"/>
	<path fill="#5F5D5D" d="M25.3,21.6v0.9h-2.1V14H10.3v16.6h12.8v-2.5h-1c0,0-0.1,0-0.1,0v1.4H11.4V15h10.7v11.3
		c-0.5-0.2-0.9-0.7-0.9-1.3c0-0.2,0.1-0.4,0.2-0.6c0.1-0.3,0-0.6-0.2-0.7c-0.3-0.1-0.6,0-0.7,0.2c-0.2,0.3-0.3,0.7-0.3,1.1
		c0,1.3,0.9,2.3,2.1,2.5c0.2,0,0.3,0,0.3,0h0.6h2.1v1h6.5v-6.9H25.3z M25.3,26.4h-2.1v-2.8h2.1V26.4z M28.5,25.5
		c-0.3,0-0.6-0.3-0.6-0.6c0-0.3,0.3-0.6,0.6-0.6c0.3,0,0.6,0.3,0.6,0.6C29.1,25.3,28.8,25.5,28.5,25.5z"/>
</g>
</svg>
