<?xml version="1.0" encoding="utf-8"?>
<!-- Generator: Adobe Illustrator 18.1.1, SVG Export Plug-In . SVG Version: 6.00 Build 0)  -->
<svg version="1.1" id="Layer_1" xmlns="http://www.w3.org/2000/svg" xmlns:xlink="http://www.w3.org/1999/xlink" x="0px" y="0px"
	 viewBox="0 0 41.8 42.5" enable-background="new 0 0 41.8 42.5" xml:space="preserve">
<g>
	<path fill="#737373" d="M32.6,9.5H22.1c-0.2,0-0.4,0.1-0.5,0.2L8.2,23.1c-0.3,0.3-0.3,0.7,0,1l10.6,10.6c0.1,0.1,0.3,0.2,0.5,0.2
		s0.4-0.1,0.5-0.2l13.4-13.4c0.1-0.1,0.2-0.3,0.2-0.5V10.2C33.3,9.9,33,9.5,32.6,9.5z M31.9,20.5L19.2,33.2l-9.6-9.6L22.3,11h9.6
		V20.5z"/>
	<path fill="#737373" d="M28.4,16.6c1.2,0,2.1-1,2.1-2.1s-1-2.1-2.1-2.1c-1.2,0-2.1,1-2.1,2.1S27.3,16.6,28.4,16.6z M28.4,13.8
		c0.4,0,0.7,0.3,0.7,0.7c0,0.4-0.3,0.7-0.7,0.7c-0.4,0-0.7-0.3-0.7-0.7C27.7,14.1,28,13.8,28.4,13.8z"/>
	<path fill="#737373" d="M21.4,17.3c0-0.4-0.3-0.7-0.7-0.7c-0.4,0-0.7,0.3-0.7,0.7V18h-0.4c-1.4,0-2.5,1.1-2.5,2.5
		c0,1.4,1.1,2.5,2.5,2.5h0.4V25h-2.1c-0.9,0-0.9,1.4,0,1.4h2.1v0.7c0,0.4,0.3,0.7,0.7,0.7c0.4,0,0.7-0.3,0.7-0.7v-0.7h0.4
		c1.4,0,2.5-1.1,2.5-2.5c0-1.4-1.1-2.5-2.5-2.5h-0.4v-2.1h2.1c0.9,0,0.9-1.4,0-1.4h-2.1V17.3z M19.9,21.5h-0.4
		c-0.6,0-1.1-0.5-1.1-1.1s0.5-1.1,1.1-1.1h0.4V21.5z M21.7,22.9c0.6,0,1.1,0.5,1.1,1.1s-0.5,1-1.1,1h-0.4v-2.1H21.7z"/>
</g>
</svg>
