<?xml version="1.0" encoding="utf-8"?>
<!-- Generator: Adobe Illustrator 19.1.0, SVG Export Plug-In . SVG Version: 6.00 Build 0)  -->
<svg version="1.1" id="Layer_1" xmlns="http://www.w3.org/2000/svg" xmlns:xlink="http://www.w3.org/1999/xlink" x="0px" y="0px"
	 viewBox="0 0 42.7 42" enable-background="new 0 0 42.7 42" xml:space="preserve">
<g>
	<path fill="#5F5D5D" d="M26.4,27.5c-1.5,1.1-3.3,1.6-5.2,1.6c-0.2,0-0.5,0-0.7,0c-0.1,0-0.2,0-0.3,0c-0.2,0-0.4,0-0.6-0.1
		c-0.1,0-0.2,0-0.3-0.1c-0.2,0-0.4-0.1-0.5-0.1c-0.1,0-0.2-0.1-0.2-0.1c-0.2-0.1-0.4-0.1-0.6-0.2c0,0-0.1,0-0.1-0.1
		c-0.2-0.1-0.5-0.2-0.7-0.3c0,0,0,0,0,0c-0.7-0.4-1.4-0.9-2-1.5c0,0,0,0,0,0c-0.2-0.2-0.4-0.4-0.5-0.6c0,0-0.1-0.1-0.1-0.1
		c-1.2-1.5-1.9-3.4-1.9-5.5h2.3l-3.7-5.6l-3.7,5.6h2.3c0,2.4,0.8,4.7,2.1,6.6c0,0,0,0.1,0,0.1c0.1,0.2,0.3,0.4,0.4,0.5
		c0.1,0.1,0.1,0.1,0.2,0.2c0.2,0.3,0.4,0.5,0.7,0.7c0,0,0,0,0.1,0.1c0.8,0.8,1.7,1.4,2.6,2c0,0,0.1,0,0.1,0c0.3,0.1,0.6,0.3,0.8,0.4
		c0.1,0,0.1,0.1,0.2,0.1c0.2,0.1,0.5,0.2,0.8,0.3c0.1,0,0.2,0.1,0.4,0.1c0.2,0.1,0.4,0.1,0.7,0.2c0.2,0,0.3,0.1,0.5,0.1
		c0.1,0,0.1,0,0.2,0c0.2,0,0.4,0.1,0.6,0.1c0.1,0,0.2,0,0.2,0c0.4,0,0.8,0.1,1.2,0.1c2.4,0,4.7-0.7,6.6-2.1c0.6-0.4,0.8-1.3,0.3-1.9
		C27.9,27.2,27,27,26.4,27.5z"/>
	<path fill="#5F5D5D" d="M32.9,20.2c0-2.4-0.8-4.7-2-6.6c0,0,0-0.1-0.1-0.1c-0.2-0.2-0.3-0.4-0.5-0.7c0,0,0-0.1-0.1-0.1
		c-1.2-1.4-2.7-2.5-4.3-3.3c0,0-0.1,0-0.1-0.1c-0.3-0.1-0.5-0.2-0.8-0.3c-0.1,0-0.2-0.1-0.3-0.1C24.4,9,24.2,9,24,8.9
		c-0.1,0-0.3-0.1-0.4-0.1c-0.1,0-0.1,0-0.2,0c-0.2,0-0.4,0-0.6-0.1c-0.1,0-0.3,0-0.4,0c-0.3,0-0.6,0-0.9,0c-0.1,0-0.1,0-0.2,0
		c0,0,0,0,0,0c-2.4,0-4.7,0.7-6.6,2.1c-0.6,0.4-0.8,1.3-0.3,1.9c0.4,0.6,1.3,0.8,1.9,0.3c1.5-1.1,3.3-1.6,5.1-1.6c0.3,0,0.5,0,0.8,0
		c0.1,0,0.2,0,0.2,0c0.2,0,0.4,0.1,0.6,0.1c0.1,0,0.2,0,0.3,0.1c0.2,0,0.4,0.1,0.6,0.2c0.1,0,0.1,0,0.2,0.1c0.2,0.1,0.4,0.2,0.7,0.2
		c0,0,0,0,0.1,0c1.3,0.6,2.4,1.4,3.3,2.5c0,0,0,0,0,0c1.2,1.5,2,3.5,2,5.6h-2.3l3.7,5.6l3.7-5.6H32.9z"/>
	<path fill="#5F5D5D" d="M16,21.6V25c1.3,1.4,3.2,2.3,5.3,2.3c2.2,0,4.1-1,5.4-2.5v-3.2c0-1.1-0.9-1.9-1.9-1.9h-6.9
		C16.8,19.7,16,20.6,16,21.6z"/>
	<circle fill="#5F5D5D" cx="21.3" cy="17" r="2.4"/>
</g>
</svg>
