<?xml version="1.0" encoding="utf-8"?>
<!-- Generator: Adobe Illustrator 19.1.0, SVG Export Plug-In . SVG Version: 6.00 Build 0)  -->
<svg version="1.1" id="Layer_1" xmlns="http://www.w3.org/2000/svg" xmlns:xlink="http://www.w3.org/1999/xlink" x="0px" y="0px"
	 viewBox="0 0 42.7 42" enable-background="new 0 0 42.7 42" xml:space="preserve">
<g>
	<path fill="#5F5D5D" d="M14.5,12.8c0,0.4-0.3,0.7-0.7,0.7l0,0c-0.4,0-0.7-0.3-0.7-0.7V10c0-0.4,0.3-0.7,0.7-0.7l0,0
		c0.4,0,0.7,0.3,0.7,0.7V12.8z"/>
	<path fill="#5F5D5D" d="M25.4,10c0-0.4-0.3-0.7-0.7-0.7l0,0C24.4,9.4,24,9.7,24,10v2.7c0,0.4,0.3,0.7,0.7,0.7l0,0
		c0.4,0,0.7-0.3,0.7-0.7V10z"/>
	<path fill="#5F5D5D" d="M26.8,20.2c-3,0-5.4,2.4-5.4,5.4c0,3,2.4,5.4,5.4,5.4c3,0,5.4-2.4,5.4-5.4C32.2,22.7,29.8,20.2,26.8,20.2z
		 M26.8,29.7c-2.2,0-4.1-1.8-4.1-4.1c0-2.2,1.8-4.1,4.1-4.1c2.2,0,4.1,1.8,4.1,4.1C30.8,27.9,29,29.7,26.8,29.7z"/>
	<rect x="13.2" y="17.5" fill="#5F5D5D" width="2.7" height="2.7"/>
	<rect x="13.2" y="21.6" fill="#5F5D5D" width="2.7" height="2.7"/>
	<rect x="17.3" y="17.5" fill="#5F5D5D" width="2.7" height="2.7"/>
	<rect x="17.3" y="21.6" fill="#5F5D5D" width="2.7" height="2.7"/>
	<path fill="#5F5D5D" d="M20,25.7h-8c-0.1,0-0.1-0.1-0.1-0.1v-9.4h14.9v2.7h1.4v-5.3c0-0.8-0.7-1.5-1.5-1.5h-0.6v0.7
		c0,0.7-0.6,1.4-1.4,1.4c-0.7,0-1.4-0.6-1.4-1.4v-0.7h-8.2v0.7c0,0.7-0.6,1.4-1.4,1.4c-0.7,0-1.4-0.6-1.4-1.4v-0.7h-0.6
		c-0.8,0-1.5,0.7-1.5,1.5v12c0,0.8,0.7,1.5,1.5,1.5h8V25.7z"/>
	<rect x="21.3" y="17.5" fill="#5F5D5D" width="2.7" height="2.7"/>
	<path fill="#5F5D5D" d="M26.3,26.1v-1.7h-1.6c-0.3,0-0.5,0.2-0.5,0.5v1.2H26.3z"/>
	<path fill="#5F5D5D" d="M27.2,26.1h2v-1.2c0-0.3-0.2-0.5-0.5-0.5h-1.6V26.1z"/>
	<path fill="#5F5D5D" d="M27.2,26.9v1.7h1.6c0.3,0,0.5-0.2,0.5-0.5v-1.3L27.2,26.9L27.2,26.9z"/>
	<path fill="#5F5D5D" d="M26.3,26.9h-2v1.3c0,0.3,0.2,0.5,0.5,0.5h1.6V26.9z"/>
	<path fill="#5F5D5D" d="M28.4,22.7c-0.3-0.3-0.8-0.3-1.1,0c-0.2,0.2-0.4,0.8-0.6,1.3c-0.2-0.5-0.4-1.1-0.6-1.3
		c-0.3-0.3-0.8-0.3-1.1,0c-0.3,0.3-0.3,0.8,0,1.1c0.2,0.2,0.7,0.4,1.1,0.5h1.1c0.4-0.1,1-0.3,1.1-0.5C28.8,23.5,28.8,23,28.4,22.7z"
		/>
</g>
</svg>
